
<svg aria-hidden="true" style="position: absolute; width: 0; height: 0; overflow: hidden;" version="1.1" xmlns="http://www.w3.org/2000/svg" xmlns:xlink="http://www.w3.org/1999/xlink">
<defs>

<symbol id="google" viewBox='0 0 24 24'>
			<g transform='matrix(1, 0, 0, 1, 27.009001, -39.238998)'>
					<path
						fill='#4285F4'
						d='M -3.264 51.509 C -3.264 50.719 -3.334 49.969 -3.454 49.239 L -14.754 49.239 L -14.754 53.749 L -8.284 53.749 C -8.574 55.229 -9.424 56.479 -10.684 57.329 L -10.684 60.329 L -6.824 60.329 C -4.564 58.239 -3.264 55.159 -3.264 51.509 Z'
					/>
					<path
						fill='#34A853'
						d='M -14.754 63.239 C -11.514 63.239 -8.804 62.159 -6.824 60.329 L -10.684 57.329 C -11.764 58.049 -13.134 58.489 -14.754 58.489 C -17.884 58.489 -20.534 56.379 -21.484 53.529 L -25.464 53.529 L -25.464 56.619 C -23.494 60.539 -19.444 63.239 -14.754 63.239 Z'
					/>
					<path
						fill='#FBBC05'
						d='M -21.484 53.529 C -21.734 52.809 -21.864 52.039 -21.864 51.239 C -21.864 50.439 -21.724 49.669 -21.484 48.949 L -21.484 45.859 L -25.464 45.859 C -26.284 47.479 -26.754 49.299 -26.754 51.239 C -26.754 53.179 -26.284 54.999 -25.464 56.619 L -21.484 53.529 Z'
					/>
					<path
						fill='#EA4335'
						d='M -14.754 43.989 C -12.984 43.989 -11.404 44.599 -10.154 45.789 L -6.734 42.369 C -8.804 40.429 -11.514 39.239 -14.754 39.239 C -19.444 39.239 -23.494 41.939 -25.464 45.859 L -21.484 48.949 C -20.534 46.099 -17.884 43.989 -14.754 43.989 Z'
					/>
				</g>
</symbol>


<symbol viewBox="0 0 512 512" id="search">

	<path  d="M500.3 443.7l-119.7-119.7c27.22-40.41 40.65-90.9 33.46-144.7C401.8 87.79 326.8 13.32 235.2 1.723C99.01-15.51-15.51 99.01 1.724 235.2c11.6 91.64 86.08 166.7 177.6 178.9c53.8 7.189 104.3-6.236 144.7-33.46l119.7 119.7c15.62 15.62 40.95 15.62 56.57 0C515.9 484.7 515.9 459.3 500.3 443.7zM79.1 208c0-70.58 57.42-128 128-128s128 57.42 128 128c0 70.58-57.42 128-128 128S79.1 278.6 79.1 208z"></path>
</symbol>


<symbol  viewBox="0 0 640 512" id="volume">
	<path fill="currentColor" d="M412.6 182c-10.28-8.334-25.41-6.867-33.75 3.402c-8.406 10.24-6.906 25.35 3.375 33.74C393.5 228.4 400 241.8 400 255.1c0 14.17-6.5 27.59-17.81 36.83c-10.28 8.396-11.78 23.5-3.375 33.74c4.719 5.806 11.62 8.802 18.56 8.802c5.344 0 10.75-1.779 15.19-5.399C435.1 311.5 448 284.6 448 255.1S435.1 200.4 412.6 182zM473.1 108.2c-10.22-8.334-25.34-6.898-33.78 3.34c-8.406 10.24-6.906 25.35 3.344 33.74C476.6 172.1 496 213.3 496 255.1s-19.44 82.1-53.31 110.7c-10.25 8.396-11.75 23.5-3.344 33.74c4.75 5.775 11.62 8.771 18.56 8.771c5.375 0 10.75-1.779 15.22-5.431C518.2 366.9 544 313 544 255.1S518.2 145 473.1 108.2zM534.4 33.4c-10.22-8.334-25.34-6.867-33.78 3.34c-8.406 10.24-6.906 25.35 3.344 33.74C559.9 116.3 592 183.9 592 255.1s-32.09 139.7-88.06 185.5c-10.25 8.396-11.75 23.5-3.344 33.74C505.3 481 512.2 484 519.2 484c5.375 0 10.75-1.779 15.22-5.431C601.5 423.6 640 342.5 640 255.1S601.5 88.34 534.4 33.4zM301.2 34.98c-11.5-5.181-25.01-3.076-34.43 5.29L131.8 160.1H48c-26.51 0-48 21.48-48 47.96v95.92c0 26.48 21.49 47.96 48 47.96h83.84l134.9 119.8C272.7 477 280.3 479.8 288 479.8c4.438 0 8.959-.9314 13.16-2.835C312.7 471.8 320 460.4 320 447.9V64.12C320 51.55 312.7 40.13 301.2 34.98z"></path>
</symbol>


<symbol viewBox="0 0 32 40"  width="32" height="40" id="bookmark">

<g clip-path="url(#clip0_11232_120150)">
<path d="M3.51735 3.43156C2.23343 2.17895 3.12026 0 4.914 0H103V40H4.914C3.12026 40 2.23343 37.821 3.51735 36.5684L19.0326 21.4316C19.8371 20.6467 19.8371 19.3533 19.0326 18.5684L3.51735 3.43156Z" fill="#1ABC9C"/>
</g>
<defs>
<clipPath id="clip0_11232_120150">
<rect width="32" height="40" fill="white"/>
</clipPath>
</defs>

</symbol>


</defs>
</svg>