<svg width="101" height="151" viewBox="0 0 101 151" fill="none" xmlns="http://www.w3.org/2000/svg">
<g opacity="0.7" clip-path="url(#clip0_770_18250)">
<path d="M-0.494141 -41.1774V-42.5354H1.80186V-44.8594H3.20186V-42.5354H5.49786V-41.1774H3.20186V-38.7694H1.80186V-41.1774H-0.494141Z" fill="#7B56BD"/>
<path d="M20.5059 -41.1774V-42.5354H22.8019V-44.8594H24.2019V-42.5354H26.4979V-41.1774H24.2019V-38.7694H22.8019V-41.1774H20.5059Z" fill="#7B56BD"/>
<path d="M41.5059 -41.1774V-42.5354H43.8019V-44.8594H45.2019V-42.5354H47.4979V-41.1774H45.2019V-38.7694H43.8019V-41.1774H41.5059Z" fill="#7B56BD"/>
<path d="M62.5059 -41.1774V-42.5354H64.8019V-44.8594H66.2019V-42.5354H68.4979V-41.1774H66.2019V-38.7694H64.8019V-41.1774H62.5059Z" fill="#7B56BD"/>
<path d="M83.5059 -41.1774V-42.5354H85.8019V-44.8594H87.2019V-42.5354H89.4979V-41.1774H87.2019V-38.7694H85.8019V-41.1774H83.5059Z" fill="#7B56BD"/>
<path d="M104.506 -41.1774V-42.5354H106.802V-44.8594H108.202V-42.5354H110.498V-41.1774H108.202V-38.7694H106.802V-41.1774H104.506Z" fill="#7B56BD"/>
<path d="M125.506 -41.1774V-42.5354H127.802V-44.8594H129.202V-42.5354H131.498V-41.1774H129.202V-38.7694H127.802V-41.1774H125.506Z" fill="#7B56BD"/>
<path d="M146.506 -41.1774V-42.5354H148.802V-44.8594H150.202V-42.5354H152.498V-41.1774H150.202V-38.7694H148.802V-41.1774H146.506Z" fill="#7B56BD"/>
<path d="M167.506 -41.1774V-42.5354H169.802V-44.8594H171.202V-42.5354H173.498V-41.1774H171.202V-38.7694H169.802V-41.1774H167.506Z" fill="#7B56BD"/>
<path d="M188.506 -41.1774V-42.5354H190.802V-44.8594H192.202V-42.5354H194.498V-41.1774H192.202V-38.7694H190.802V-41.1774H188.506Z" fill="#7B56BD"/>
<path d="M-0.494141 -15.1774V-16.5354H1.80186V-18.8594H3.20186V-16.5354H5.49786V-15.1774H3.20186V-12.7694H1.80186V-15.1774H-0.494141Z" fill="#7B56BD"/>
<path d="M20.5059 -15.1774V-16.5354H22.8019V-18.8594H24.2019V-16.5354H26.4979V-15.1774H24.2019V-12.7694H22.8019V-15.1774H20.5059Z" fill="#7B56BD"/>
<path d="M41.5059 -15.1774V-16.5354H43.8019V-18.8594H45.2019V-16.5354H47.4979V-15.1774H45.2019V-12.7694H43.8019V-15.1774H41.5059Z" fill="#7B56BD"/>
<path d="M62.5059 -15.1774V-16.5354H64.8019V-18.8594H66.2019V-16.5354H68.4979V-15.1774H66.2019V-12.7694H64.8019V-15.1774H62.5059Z" fill="#7B56BD"/>
<path d="M83.5059 -15.1774V-16.5354H85.8019V-18.8594H87.2019V-16.5354H89.4979V-15.1774H87.2019V-12.7694H85.8019V-15.1774H83.5059Z" fill="#7B56BD"/>
<path d="M104.506 -15.1774V-16.5354H106.802V-18.8594H108.202V-16.5354H110.498V-15.1774H108.202V-12.7694H106.802V-15.1774H104.506Z" fill="#7B56BD"/>
<path d="M125.506 -15.1774V-16.5354H127.802V-18.8594H129.202V-16.5354H131.498V-15.1774H129.202V-12.7694H127.802V-15.1774H125.506Z" fill="#7B56BD"/>
<path d="M146.506 -15.1774V-16.5354H148.802V-18.8594H150.202V-16.5354H152.498V-15.1774H150.202V-12.7694H148.802V-15.1774H146.506Z" fill="#7B56BD"/>
<path d="M167.506 -15.1774V-16.5354H169.802V-18.8594H171.202V-16.5354H173.498V-15.1774H171.202V-12.7694H169.802V-15.1774H167.506Z" fill="#7B56BD"/>
<path d="M188.506 -15.1774V-16.5354H190.802V-18.8594H192.202V-16.5354H194.498V-15.1774H192.202V-12.7694H190.802V-15.1774H188.506Z" fill="#7B56BD"/>
<path d="M-0.494141 10.8226V9.46463H1.80186V7.14062H3.20186V9.46463H5.49786V10.8226H3.20186V13.2306H1.80186V10.8226H-0.494141Z" fill="#7B56BD"/>
<path d="M20.5059 10.8226V9.46463H22.8019V7.14062H24.2019V9.46463H26.4979V10.8226H24.2019V13.2306H22.8019V10.8226H20.5059Z" fill="#7B56BD"/>
<path d="M41.5059 10.8226V9.46463H43.8019V7.14062H45.2019V9.46463H47.4979V10.8226H45.2019V13.2306H43.8019V10.8226H41.5059Z" fill="#7B56BD"/>
<path d="M62.5059 10.8226V9.46463H64.8019V7.14062H66.2019V9.46463H68.4979V10.8226H66.2019V13.2306H64.8019V10.8226H62.5059Z" fill="#7B56BD"/>
<path d="M83.5059 10.8226V9.46463H85.8019V7.14062H87.2019V9.46463H89.4979V10.8226H87.2019V13.2306H85.8019V10.8226H83.5059Z" fill="#7B56BD"/>
<path d="M104.506 10.8226V9.46463H106.802V7.14062H108.202V9.46463H110.498V10.8226H108.202V13.2306H106.802V10.8226H104.506Z" fill="#7B56BD"/>
<path d="M125.506 10.8226V9.46463H127.802V7.14062H129.202V9.46463H131.498V10.8226H129.202V13.2306H127.802V10.8226H125.506Z" fill="#7B56BD"/>
<path d="M146.506 10.8226V9.46463H148.802V7.14062H150.202V9.46463H152.498V10.8226H150.202V13.2306H148.802V10.8226H146.506Z" fill="#7B56BD"/>
<path d="M167.506 10.8226V9.46463H169.802V7.14062H171.202V9.46463H173.498V10.8226H171.202V13.2306H169.802V10.8226H167.506Z" fill="#7B56BD"/>
<path d="M188.506 10.8226V9.46463H190.802V7.14062H192.202V9.46463H194.498V10.8226H192.202V13.2306H190.802V10.8226H188.506Z" fill="#7B56BD"/>
<path d="M-0.494141 36.8226V35.4646H1.80186V33.1406H3.20186V35.4646H5.49786V36.8226H3.20186V39.2306H1.80186V36.8226H-0.494141Z" fill="#7B56BD"/>
<path d="M20.5059 36.8226V35.4646H22.8019V33.1406H24.2019V35.4646H26.4979V36.8226H24.2019V39.2306H22.8019V36.8226H20.5059Z" fill="#7B56BD"/>
<path d="M41.5059 36.8226V35.4646H43.8019V33.1406H45.2019V35.4646H47.4979V36.8226H45.2019V39.2306H43.8019V36.8226H41.5059Z" fill="#7B56BD"/>
<path d="M62.5059 36.8226V35.4646H64.8019V33.1406H66.2019V35.4646H68.4979V36.8226H66.2019V39.2306H64.8019V36.8226H62.5059Z" fill="#7B56BD"/>
<path d="M83.5059 36.8226V35.4646H85.8019V33.1406H87.2019V35.4646H89.4979V36.8226H87.2019V39.2306H85.8019V36.8226H83.5059Z" fill="#7B56BD"/>
<path d="M104.506 36.8226V35.4646H106.802V33.1406H108.202V35.4646H110.498V36.8226H108.202V39.2306H106.802V36.8226H104.506Z" fill="#7B56BD"/>
<path d="M125.506 36.8226V35.4646H127.802V33.1406H129.202V35.4646H131.498V36.8226H129.202V39.2306H127.802V36.8226H125.506Z" fill="#7B56BD"/>
<path d="M146.506 36.8226V35.4646H148.802V33.1406H150.202V35.4646H152.498V36.8226H150.202V39.2306H148.802V36.8226H146.506Z" fill="#7B56BD"/>
<path d="M167.506 36.8226V35.4646H169.802V33.1406H171.202V35.4646H173.498V36.8226H171.202V39.2306H169.802V36.8226H167.506Z" fill="#7B56BD"/>
<path d="M188.506 36.8226V35.4646H190.802V33.1406H192.202V35.4646H194.498V36.8226H192.202V39.2306H190.802V36.8226H188.506Z" fill="#7B56BD"/>
<path d="M-0.494141 62.8226V61.4646H1.80186V59.1406H3.20186V61.4646H5.49786V62.8226H3.20186V65.2306H1.80186V62.8226H-0.494141Z" fill="#7B56BD"/>
<path d="M20.5059 62.8226V61.4646H22.8019V59.1406H24.2019V61.4646H26.4979V62.8226H24.2019V65.2306H22.8019V62.8226H20.5059Z" fill="#7B56BD"/>
<path d="M41.5059 62.8226V61.4646H43.8019V59.1406H45.2019V61.4646H47.4979V62.8226H45.2019V65.2306H43.8019V62.8226H41.5059Z" fill="#7B56BD"/>
<path d="M62.5059 62.8226V61.4646H64.8019V59.1406H66.2019V61.4646H68.4979V62.8226H66.2019V65.2306H64.8019V62.8226H62.5059Z" fill="#7B56BD"/>
<path d="M83.5059 62.8226V61.4646H85.8019V59.1406H87.2019V61.4646H89.4979V62.8226H87.2019V65.2306H85.8019V62.8226H83.5059Z" fill="#7B56BD"/>
<path d="M104.506 62.8226V61.4646H106.802V59.1406H108.202V61.4646H110.498V62.8226H108.202V65.2306H106.802V62.8226H104.506Z" fill="#7B56BD"/>
<path d="M125.506 62.8226V61.4646H127.802V59.1406H129.202V61.4646H131.498V62.8226H129.202V65.2306H127.802V62.8226H125.506Z" fill="#7B56BD"/>
<path d="M146.506 62.8226V61.4646H148.802V59.1406H150.202V61.4646H152.498V62.8226H150.202V65.2306H148.802V62.8226H146.506Z" fill="#7B56BD"/>
<path d="M167.506 62.8226V61.4646H169.802V59.1406H171.202V61.4646H173.498V62.8226H171.202V65.2306H169.802V62.8226H167.506Z" fill="#7B56BD"/>
<path d="M188.506 62.8226V61.4646H190.802V59.1406H192.202V61.4646H194.498V62.8226H192.202V65.2306H190.802V62.8226H188.506Z" fill="#7B56BD"/>
<path d="M-0.494141 88.8226V87.4646H1.80186V85.1406H3.20186V87.4646H5.49786V88.8226H3.20186V91.2306H1.80186V88.8226H-0.494141Z" fill="#7B56BD"/>
<path d="M20.5059 88.8226V87.4646H22.8019V85.1406H24.2019V87.4646H26.4979V88.8226H24.2019V91.2306H22.8019V88.8226H20.5059Z" fill="#7B56BD"/>
<path d="M41.5059 88.8226V87.4646H43.8019V85.1406H45.2019V87.4646H47.4979V88.8226H45.2019V91.2306H43.8019V88.8226H41.5059Z" fill="#7B56BD"/>
<path d="M62.5059 88.8226V87.4646H64.8019V85.1406H66.2019V87.4646H68.4979V88.8226H66.2019V91.2306H64.8019V88.8226H62.5059Z" fill="#7B56BD"/>
<path d="M83.5059 88.8226V87.4646H85.8019V85.1406H87.2019V87.4646H89.4979V88.8226H87.2019V91.2306H85.8019V88.8226H83.5059Z" fill="#7B56BD"/>
<path d="M104.506 88.8226V87.4646H106.802V85.1406H108.202V87.4646H110.498V88.8226H108.202V91.2306H106.802V88.8226H104.506Z" fill="#7B56BD"/>
<path d="M125.506 88.8226V87.4646H127.802V85.1406H129.202V87.4646H131.498V88.8226H129.202V91.2306H127.802V88.8226H125.506Z" fill="#7B56BD"/>
<path d="M146.506 88.8226V87.4646H148.802V85.1406H150.202V87.4646H152.498V88.8226H150.202V91.2306H148.802V88.8226H146.506Z" fill="#7B56BD"/>
<path d="M167.506 88.8226V87.4646H169.802V85.1406H171.202V87.4646H173.498V88.8226H171.202V91.2306H169.802V88.8226H167.506Z" fill="#7B56BD"/>
<path d="M188.506 88.8226V87.4646H190.802V85.1406H192.202V87.4646H194.498V88.8226H192.202V91.2306H190.802V88.8226H188.506Z" fill="#7B56BD"/>
<path d="M-0.494141 114.823V113.465H1.80186V111.141H3.20186V113.465H5.49786V114.823H3.20186V117.231H1.80186V114.823H-0.494141Z" fill="#7B56BD"/>
<path d="M20.5059 114.823V113.465H22.8019V111.141H24.2019V113.465H26.4979V114.823H24.2019V117.231H22.8019V114.823H20.5059Z" fill="#7B56BD"/>
<path d="M41.5059 114.823V113.465H43.8019V111.141H45.2019V113.465H47.4979V114.823H45.2019V117.231H43.8019V114.823H41.5059Z" fill="#7B56BD"/>
<path d="M62.5059 114.823V113.465H64.8019V111.141H66.2019V113.465H68.4979V114.823H66.2019V117.231H64.8019V114.823H62.5059Z" fill="#7B56BD"/>
<path d="M83.5059 114.823V113.465H85.8019V111.141H87.2019V113.465H89.4979V114.823H87.2019V117.231H85.8019V114.823H83.5059Z" fill="#7B56BD"/>
<path d="M104.506 114.823V113.465H106.802V111.141H108.202V113.465H110.498V114.823H108.202V117.231H106.802V114.823H104.506Z" fill="#7B56BD"/>
<path d="M125.506 114.823V113.465H127.802V111.141H129.202V113.465H131.498V114.823H129.202V117.231H127.802V114.823H125.506Z" fill="#7B56BD"/>
<path d="M146.506 114.823V113.465H148.802V111.141H150.202V113.465H152.498V114.823H150.202V117.231H148.802V114.823H146.506Z" fill="#7B56BD"/>
<path d="M167.506 114.823V113.465H169.802V111.141H171.202V113.465H173.498V114.823H171.202V117.231H169.802V114.823H167.506Z" fill="#7B56BD"/>
<path d="M188.506 114.823V113.465H190.802V111.141H192.202V113.465H194.498V114.823H192.202V117.231H190.802V114.823H188.506Z" fill="#7B56BD"/>
<path d="M-0.494141 140.823V139.465H1.80186V137.141H3.20186V139.465H5.49786V140.823H3.20186V143.231H1.80186V140.823H-0.494141Z" fill="#7B56BD"/>
<path d="M20.5059 140.823V139.465H22.8019V137.141H24.2019V139.465H26.4979V140.823H24.2019V143.231H22.8019V140.823H20.5059Z" fill="#7B56BD"/>
<path d="M41.5059 140.823V139.465H43.8019V137.141H45.2019V139.465H47.4979V140.823H45.2019V143.231H43.8019V140.823H41.5059Z" fill="#7B56BD"/>
<path d="M62.5059 140.823V139.465H64.8019V137.141H66.2019V139.465H68.4979V140.823H66.2019V143.231H64.8019V140.823H62.5059Z" fill="#7B56BD"/>
<path d="M83.5059 140.823V139.465H85.8019V137.141H87.2019V139.465H89.4979V140.823H87.2019V143.231H85.8019V140.823H83.5059Z" fill="#7B56BD"/>
<path d="M104.506 140.823V139.465H106.802V137.141H108.202V139.465H110.498V140.823H108.202V143.231H106.802V140.823H104.506Z" fill="#7B56BD"/>
<path d="M125.506 140.823V139.465H127.802V137.141H129.202V139.465H131.498V140.823H129.202V143.231H127.802V140.823H125.506Z" fill="#7B56BD"/>
<path d="M146.506 140.823V139.465H148.802V137.141H150.202V139.465H152.498V140.823H150.202V143.231H148.802V140.823H146.506Z" fill="#7B56BD"/>
<path d="M167.506 140.823V139.465H169.802V137.141H171.202V139.465H173.498V140.823H171.202V143.231H169.802V140.823H167.506Z" fill="#7B56BD"/>
<path d="M188.506 140.823V139.465H190.802V137.141H192.202V139.465H194.498V140.823H192.202V143.231H190.802V140.823H188.506Z" fill="#7B56BD"/>
<path d="M-0.494141 166.823V165.465H1.80186V163.141H3.20186V165.465H5.49786V166.823H3.20186V169.231H1.80186V166.823H-0.494141Z" fill="#7B56BD"/>
<path d="M20.5059 166.823V165.465H22.8019V163.141H24.2019V165.465H26.4979V166.823H24.2019V169.231H22.8019V166.823H20.5059Z" fill="#7B56BD"/>
<path d="M41.5059 166.823V165.465H43.8019V163.141H45.2019V165.465H47.4979V166.823H45.2019V169.231H43.8019V166.823H41.5059Z" fill="#7B56BD"/>
<path d="M62.5059 166.823V165.465H64.8019V163.141H66.2019V165.465H68.4979V166.823H66.2019V169.231H64.8019V166.823H62.5059Z" fill="#7B56BD"/>
<path d="M83.5059 166.823V165.465H85.8019V163.141H87.2019V165.465H89.4979V166.823H87.2019V169.231H85.8019V166.823H83.5059Z" fill="#7B56BD"/>
<path d="M104.506 166.823V165.465H106.802V163.141H108.202V165.465H110.498V166.823H108.202V169.231H106.802V166.823H104.506Z" fill="#7B56BD"/>
<path d="M125.506 166.823V165.465H127.802V163.141H129.202V165.465H131.498V166.823H129.202V169.231H127.802V166.823H125.506Z" fill="#7B56BD"/>
<path d="M146.506 166.823V165.465H148.802V163.141H150.202V165.465H152.498V166.823H150.202V169.231H148.802V166.823H146.506Z" fill="#7B56BD"/>
<path d="M167.506 166.823V165.465H169.802V163.141H171.202V165.465H173.498V166.823H171.202V169.231H169.802V166.823H167.506Z" fill="#7B56BD"/>
<path d="M188.506 166.823V165.465H190.802V163.141H192.202V165.465H194.498V166.823H192.202V169.231H190.802V166.823H188.506Z" fill="#7B56BD"/>
<path d="M-0.494141 192.823V191.465H1.80186V189.141H3.20186V191.465H5.49786V192.823H3.20186V195.231H1.80186V192.823H-0.494141Z" fill="#7B56BD"/>
<path d="M20.5059 192.823V191.465H22.8019V189.141H24.2019V191.465H26.4979V192.823H24.2019V195.231H22.8019V192.823H20.5059Z" fill="#7B56BD"/>
<path d="M41.5059 192.823V191.465H43.8019V189.141H45.2019V191.465H47.4979V192.823H45.2019V195.231H43.8019V192.823H41.5059Z" fill="#7B56BD"/>
<path d="M62.5059 192.823V191.465H64.8019V189.141H66.2019V191.465H68.4979V192.823H66.2019V195.231H64.8019V192.823H62.5059Z" fill="#7B56BD"/>
<path d="M83.5059 192.823V191.465H85.8019V189.141H87.2019V191.465H89.4979V192.823H87.2019V195.231H85.8019V192.823H83.5059Z" fill="#7B56BD"/>
<path d="M104.506 192.823V191.465H106.802V189.141H108.202V191.465H110.498V192.823H108.202V195.231H106.802V192.823H104.506Z" fill="#7B56BD"/>
<path d="M125.506 192.823V191.465H127.802V189.141H129.202V191.465H131.498V192.823H129.202V195.231H127.802V192.823H125.506Z" fill="#7B56BD"/>
<path d="M146.506 192.823V191.465H148.802V189.141H150.202V191.465H152.498V192.823H150.202V195.231H148.802V192.823H146.506Z" fill="#7B56BD"/>
<path d="M167.506 192.823V191.465H169.802V189.141H171.202V191.465H173.498V192.823H171.202V195.231H169.802V192.823H167.506Z" fill="#7B56BD"/>
<path d="M188.506 192.823V191.465H190.802V189.141H192.202V191.465H194.498V192.823H192.202V195.231H190.802V192.823H188.506Z" fill="#7B56BD"/>
</g>
<defs>
<clipPath id="clip0_770_18250">
<rect width="101" height="151" fill="white"/>
</clipPath>
</defs>
</svg>
